<svg width="75" height="20" viewBox="0 0 75 20" fill="none" xmlns="http://www.w3.org/2000/svg">
<path fill-rule="evenodd" clip-rule="evenodd" d="M17.0612 2.66976C15.3911 1.10619 13.207 0.206672 10.9647 0.0316344C9.15574 -0.109652 7.3075 0.220801 5.66096 1.0536C1.77926 3.01591 -0.388407 7.35182 0.312434 11.6359C0.71269 14.0794 1.88991 16.1147 3.80565 17.6885C6.15853 19.6217 8.87321 20.3352 11.8704 19.8556C14.3104 19.4647 16.3423 18.2897 17.9166 16.3823C19.8638 14.0237 20.5764 11.3047 20.0922 8.29608C19.7359 6.0826 18.6999 4.20428 17.0612 2.66976ZM10.2404 1.89111C14.757 1.90838 18.3177 5.58025 18.3091 9.98288C18.3169 14.3863 14.746 18.0754 10.2003 18.0723C5.72453 18.0699 2.09789 14.4656 2.10338 9.9711C2.10809 5.48606 5.74022 1.87385 10.2404 1.89111ZM74.2238 15.8117H74.2241C74.4221 15.8129 74.6202 15.814 74.8182 15.8149V15.7411C74.8002 15.7239 74.7815 15.7074 74.7629 15.6908C74.7271 15.659 74.6914 15.6273 74.6604 15.5912C73.369 14.0814 72.0791 12.57 70.7892 11.0587L70.7881 11.0574C70.4663 10.6799 70.1446 10.3023 69.8189 9.9193L72.1833 7.14952L72.2046 7.12453L72.2358 7.08805L72.3774 6.92217L72.5084 6.76879L72.5187 6.75663C73.2786 5.86657 74.0396 4.97516 74.804 4.07948C74.7769 4.07618 74.7571 4.07315 74.7414 4.07076C74.7197 4.06746 74.7059 4.06535 74.6918 4.06535L74.2867 4.06479C73.6568 4.0638 73.0271 4.06281 72.397 4.06928C72.3256 4.07006 72.2353 4.12422 72.1859 4.18152C71.2155 5.31225 70.2479 6.44571 69.2802 7.57917L68.6989 8.25998C68.6674 8.29692 68.6336 8.33241 68.5981 8.36968C68.5816 8.38704 68.5647 8.40478 68.5475 8.42324L68.5316 8.40573L68.4848 8.35443C68.448 8.31434 68.4155 8.2788 68.3842 8.24192C67.2306 6.89186 66.0769 5.541 64.9263 4.1878C64.851 4.09832 64.7772 4.05986 64.6595 4.06064C64.1594 4.06442 63.6593 4.06412 63.1591 4.06381H63.159C62.9316 4.06367 62.7043 4.06354 62.4769 4.06378C62.4425 4.06378 62.4085 4.0677 62.3655 4.07266C62.3447 4.07506 62.3217 4.0777 62.2956 4.08026C63.9704 6.04179 65.6217 7.97583 67.2808 9.9193L64.5071 13.1682L62.2744 15.7835C62.2941 15.7884 62.3084 15.7927 62.3197 15.7962C62.3353 15.8009 62.3449 15.8039 62.3545 15.8039L62.8212 15.8046H62.8212H62.8213H62.8213H62.8214H62.8214H62.8214C63.4435 15.8057 64.0655 15.8068 64.687 15.7999C64.7576 15.7992 64.8455 15.7371 64.8957 15.6783C65.5771 14.8869 66.2555 14.0924 66.9337 13.2982L67.4275 12.7199L68.5467 11.4107C68.5613 11.4265 68.5747 11.4409 68.5873 11.4544L68.5874 11.4545C68.6128 11.4817 68.6348 11.5053 68.6558 11.53L69.4725 12.4863C70.37 13.537 71.2675 14.5879 72.1623 15.6406C72.262 15.7583 72.3633 15.8117 72.5241 15.8101C73.0905 15.8049 73.6573 15.8083 74.2238 15.8117ZM35.7178 8.78901C35.7155 8.4876 35.6872 8.18148 35.633 7.88478C35.2438 5.74351 33.3422 4.10617 31.1635 4.04965C30.2988 4.02698 29.4336 4.03377 28.5687 4.04055L28.1985 4.04337C27.901 4.04494 27.602 4.0677 27.3085 4.11244C25.0537 4.45153 23.3271 6.45936 23.324 8.73878C23.3231 9.17172 23.3232 9.60466 23.3234 10.0376C23.3234 10.3621 23.3235 10.6866 23.3232 11.0111C23.3224 11.9593 23.5618 12.8408 24.0915 13.6288C24.969 14.935 26.1941 15.6751 27.7763 15.7717C28.1714 15.7959 28.5679 15.7895 28.9647 15.7831H28.9648H28.9648H28.9649H28.9649H28.965C29.1466 15.7801 29.3283 15.7772 29.5099 15.7772V15.7889L30.0005 15.7888C30.3278 15.7886 30.6554 15.7884 30.983 15.7889C32.0158 15.7913 32.956 15.4922 33.7801 14.8753C34.9636 13.9891 35.6362 12.8062 35.7045 11.3212C35.7378 10.6055 35.7298 9.88808 35.7218 9.17139C35.7204 9.04391 35.719 8.91644 35.7178 8.78901ZM33.7597 11.446C33.6938 12.5511 32.7033 13.5747 31.5795 13.8C31.3801 13.84 31.1737 13.8604 30.9705 13.862C30.273 13.866 29.5754 13.8654 28.8776 13.8648C28.6238 13.8645 28.37 13.8643 28.1161 13.8643C26.6351 13.8643 25.4501 12.8204 25.2672 11.3502C25.2586 11.2835 25.2589 11.2151 25.2592 11.1473V11.1473V11.1473V11.1473V11.1472V11.1472L25.2593 11.1092C25.2586 10.3141 25.2586 9.51977 25.2593 8.72386C25.2601 7.67128 25.9649 6.54335 26.9789 6.18307C27.7676 5.90364 28.6498 5.88872 29.5193 5.91855C29.6988 5.92477 29.8778 5.93294 30.0554 5.94105L30.0555 5.94105L30.0555 5.94105C30.3935 5.95649 30.7263 5.97168 31.0474 5.97271C32.4271 5.97899 33.6883 7.11006 33.7652 8.48839C33.8201 9.47111 33.8162 10.4633 33.7589 11.4468L33.7597 11.446ZM61.1812 15.7764V13.8651H60.9238H53.9091C53.1533 13.8651 52.6432 13.3612 52.6432 12.6092V6.18071V5.96721H61.1765V4.04023H60.9638C60.1496 4.04023 59.3354 4.04075 58.5213 4.04128C56.3503 4.04268 54.1795 4.04408 52.0083 4.03552C51.218 4.03316 50.6992 4.61165 50.7047 5.34006C50.7175 6.97805 50.7158 8.61604 50.7141 10.254C50.7134 11.032 50.7126 11.81 50.7133 12.588C50.7133 12.7615 50.7243 12.9357 50.7479 13.1069C50.9566 14.6398 52.2641 15.7858 53.8149 15.7882C55.4065 15.7902 56.9981 15.7896 58.5897 15.7889H58.5913C59.3874 15.7885 60.1834 15.7882 60.9795 15.7882C61.026 15.7882 61.0724 15.7846 61.1212 15.7808L61.1212 15.7808L61.1619 15.7777L61.1812 15.7764ZM36.7012 4.04023L37.1241 4.03998C37.6791 4.03947 38.2194 4.03899 38.7597 4.04651C38.81 4.04651 38.8767 4.12343 38.9049 4.17994C39.3984 5.1722 39.8879 6.16582 40.3776 7.16017L40.4856 7.37929C41.0972 8.62001 41.7084 9.86115 42.3195 11.1021L42.3534 11.171L42.3621 11.1886L42.9821 12.4475C42.9988 12.4819 43.016 12.5157 43.0353 12.5537L43.0359 12.5548L43.036 12.555L43.0361 12.5552L43.0669 12.6158L43.0857 12.6532C43.1271 12.5703 43.1676 12.4898 43.2075 12.4107C43.2785 12.2698 43.3471 12.1335 43.4145 11.9962L44.1379 10.5277C45.1806 8.41111 46.2234 6.29436 47.2687 4.17916C47.2962 4.12265 47.3645 4.04729 47.4147 4.04729C47.9716 4.04019 48.5286 4.04052 49.1038 4.04086H49.1039L49.4796 4.04101C49.4345 4.13429 49.3906 4.22565 49.3474 4.31558L49.3472 4.31608C49.2498 4.51883 49.1558 4.71434 49.0597 4.90835L47.4474 8.17246C46.5499 9.98911 45.6525 11.8057 44.7557 13.6226C44.5406 14.0575 44.3276 14.4936 44.1145 14.9298L43.9866 15.1916C43.8053 15.5629 43.5181 15.7834 43.0951 15.7866C42.665 15.7889 42.3762 15.5723 42.1886 15.19C41.0197 12.8184 39.8491 10.4471 38.6786 8.0759L38.6662 8.05063C38.0309 6.76378 37.3957 5.47696 36.7608 4.19015C36.7484 4.16526 36.7387 4.13935 36.7254 4.10381L36.7253 4.10369L36.7253 4.10357L36.7252 4.10323C36.7184 4.08511 36.7107 4.06448 36.7012 4.04023ZM60.2206 10.873V8.9719H53.5967V10.873H60.2206ZM10.2223 17.6484C9.14564 15.6038 8.07167 13.5688 7.00069 11.5395C5.98021 9.60585 4.96245 7.67737 3.94768 5.75058L3.95626 5.74183C3.9621 5.73581 3.96806 5.72968 3.97437 5.72389L4.11393 5.83216C4.23323 5.92462 4.3526 6.01713 4.47115 6.11086L5.62405 7.02333L6.77694 7.9358C7.05055 8.15243 7.32346 8.36994 7.59638 8.58747L7.5967 8.58772C8.09008 8.98097 8.58351 9.37425 9.08116 9.76232C9.40242 10.013 9.64388 10.2 9.80555 10.3235C9.90836 10.402 10.0787 10.5386 10.1642 10.6461C10.2241 10.7212 10.2236 10.7637 10.2225 10.858L10.2223 10.884C10.2217 11.0456 10.2223 11.1338 10.223 11.2337L10.2239 11.3769V11.8377V12.2984V12.7592V13.2199V13.6806V14.1414V14.6021V15.0629V15.5236V15.9844V16.4451V16.9059V17.3666V17.5511V17.6508L10.2223 17.6484ZM13.6057 11.5393C12.5347 13.5687 11.4607 15.6037 10.384 17.6484L10.3824 17.6508V17.5511V17.3666V16.9059V16.4451V15.9844V15.5236V15.0629V14.6021V14.1414V13.6806V13.2199V12.7592V12.2984V11.8377V11.3769C10.3827 11.3224 10.383 11.2769 10.3833 11.2337C10.384 11.1338 10.3846 11.0456 10.384 10.884C10.384 10.8749 10.3839 10.8662 10.3838 10.858C10.3827 10.7637 10.3822 10.7212 10.4421 10.6461C10.5276 10.5386 10.6979 10.402 10.8008 10.3235C10.9624 10.2 11.2039 10.013 11.5251 9.76232C12.0229 9.37417 12.5164 8.98081 13.0099 8.58749C13.2828 8.36996 13.5557 8.15243 13.8294 7.9358C14.2133 7.63183 14.5974 7.32786 14.9816 7.02389C15.3661 6.71954 15.7507 6.4152 16.1351 6.11086C16.2537 6.01714 16.373 5.92464 16.4923 5.83219C16.5389 5.79611 16.5854 5.76003 16.6319 5.72389C16.6382 5.72968 16.6442 5.73582 16.65 5.74183C16.6529 5.7448 16.6558 5.74773 16.6586 5.75058C15.6439 7.67732 14.6261 9.60574 13.6057 11.5393Z" fill="#EFF1F5"/>
</svg>